<svg width="512" height="512" viewBox="0 0 512 512" fill="none" xmlns="http://www.w3.org/2000/svg">
<rect x="32" y="32" width="448" height="448" rx="16" fill="#5675EF"/>
<circle cx="345.5" cy="255.5" r="156.5" fill="#F69745"/>
<path d="M163.381 268.326H108.449L108.156 234.635H152.688C160.695 234.635 167.092 233.756 171.877 231.998C176.662 230.143 180.129 227.457 182.277 223.941C184.523 220.426 185.646 216.031 185.646 210.758C185.646 204.703 184.523 199.82 182.277 196.109C180.031 192.398 176.467 189.713 171.584 188.053C166.799 186.295 160.598 185.416 152.98 185.416H127.785V359H76.3691V145.719H152.98C166.164 145.719 177.932 146.939 188.283 149.381C198.635 151.725 207.424 155.338 214.65 160.221C221.975 165.104 227.541 171.256 231.35 178.678C235.158 186.002 237.062 194.645 237.062 204.605C237.062 213.297 235.207 221.451 231.496 229.068C227.785 236.686 221.584 242.887 212.893 247.672C204.299 252.359 192.531 254.801 177.59 254.996L163.381 268.326ZM161.33 359H95.998L113.576 319.449H161.33C168.361 319.449 173.977 318.375 178.176 316.227C182.473 313.98 185.549 311.051 187.404 307.438C189.357 303.727 190.334 299.625 190.334 295.133C190.334 289.664 189.406 284.928 187.551 280.924C185.793 276.92 182.961 273.844 179.055 271.695C175.148 269.449 169.924 268.326 163.381 268.326H120.168L120.461 234.635H172.17L184.182 248.111C198.439 247.525 209.719 249.527 218.02 254.117C226.418 258.707 232.424 264.762 236.037 272.281C239.65 279.801 241.457 287.662 241.457 295.865C241.457 309.83 238.43 321.5 232.375 330.875C226.418 340.25 217.482 347.281 205.568 351.969C193.654 356.656 178.908 359 161.33 359ZM441.49 248.111V256.754C441.49 273.062 439.195 287.711 434.605 300.699C430.113 313.59 423.717 324.625 415.416 333.805C407.115 342.887 397.301 349.869 385.973 354.752C374.645 359.537 362.145 361.93 348.473 361.93C334.703 361.93 322.105 359.537 310.68 354.752C299.352 349.869 289.488 342.887 281.09 333.805C272.789 324.625 266.344 313.59 261.754 300.699C257.262 287.711 255.016 273.062 255.016 256.754V248.111C255.016 231.803 257.262 217.154 261.754 204.166C266.344 191.178 272.74 180.143 280.943 171.061C289.244 161.881 299.059 154.898 310.387 150.113C321.812 145.23 334.41 142.789 348.18 142.789C361.852 142.789 374.352 145.23 385.68 150.113C397.105 154.898 406.969 161.881 415.27 171.061C423.57 180.143 430.016 191.178 434.605 204.166C439.195 217.154 441.49 231.803 441.49 248.111ZM389.342 256.754V247.818C389.342 237.271 388.414 227.994 386.559 219.986C384.801 211.881 382.164 205.094 378.648 199.625C375.133 194.156 370.787 190.055 365.611 187.32C360.533 184.488 354.723 183.072 348.18 183.072C341.344 183.072 335.387 184.488 330.309 187.32C325.23 190.055 320.982 194.156 317.564 199.625C314.146 205.094 311.559 211.881 309.801 219.986C308.141 227.994 307.311 237.271 307.311 247.818V256.754C307.311 267.203 308.141 276.48 309.801 284.586C311.559 292.594 314.146 299.381 317.564 304.947C321.08 310.514 325.377 314.713 330.455 317.545C335.631 320.377 341.637 321.793 348.473 321.793C355.016 321.793 360.826 320.377 365.904 317.545C370.982 314.713 375.23 310.514 378.648 304.947C382.164 299.381 384.801 292.594 386.559 284.586C388.414 276.48 389.342 267.203 389.342 256.754Z" fill="white"/>
</svg>
